<svg xmlns="http://www.w3.org/2000/svg" xmlns:xlink="http://www.w3.org/1999/xlink" width="500" zoomAndPan="magnify" viewBox="0 0 375 374.999991" height="500" preserveAspectRatio="xMidYMid meet" version="1.0"><defs><g/><clipPath id="e9ed867d38"><path d="M 0 182 L 124 182 L 124 203 L 0 203 Z M 0 182 " clip-rule="nonzero"/></clipPath><clipPath id="f95b4a2cf0"><path d="M 20.890625 146.210938 L 123.78125 185.8125 L 102.765625 240.40625 L -0.125 200.804688 Z M 20.890625 146.210938 " clip-rule="nonzero"/></clipPath><clipPath id="9c29ee23dd"><path d="M 20.890625 146.210938 L 123.78125 185.8125 L 102.765625 240.40625 L -0.125 200.804688 Z M 20.890625 146.210938 " clip-rule="nonzero"/></clipPath><clipPath id="7cb4d597a2"><path d="M 20.890625 146.210938 L 123.78125 185.8125 L 102.765625 240.40625 L -0.125 200.804688 Z M 20.890625 146.210938 " clip-rule="nonzero"/></clipPath><clipPath id="b36aba3720"><path d="M 20.882812 146.21875 L 123.773438 185.820312 L 102.769531 240.394531 L -0.121094 200.792969 Z M 20.882812 146.21875 " clip-rule="nonzero"/></clipPath><clipPath id="aa213dd6bf"><path d="M 283 176 L 375 176 L 375 190 L 283 190 Z M 283 176 " clip-rule="nonzero"/></clipPath><clipPath id="2fa597c7b9"><path d="M 358.472656 216.925781 L 283.777344 185.59375 L 300.3125 146.171875 L 375.007812 177.503906 Z M 358.472656 216.925781 " clip-rule="nonzero"/></clipPath><clipPath id="1f1b623b54"><path d="M 358.472656 216.925781 L 283.777344 185.59375 L 300.3125 146.171875 L 375.007812 177.503906 Z M 358.472656 216.925781 " clip-rule="nonzero"/></clipPath><clipPath id="a5066d1969"><path d="M 358.472656 216.925781 L 283.777344 185.59375 L 300.3125 146.171875 L 375.007812 177.503906 Z M 358.472656 216.925781 " clip-rule="nonzero"/></clipPath><clipPath id="8b929d4ba5"><path d="M 358.476562 216.917969 L 283.785156 185.589844 L 300.3125 146.183594 L 375.003906 177.511719 Z M 358.476562 216.917969 " clip-rule="nonzero"/></clipPath><clipPath id="19beca8b62"><path d="M 62.878906 43.429688 L 311.878906 43.429688 L 311.878906 331.429688 L 62.878906 331.429688 Z M 62.878906 43.429688 " clip-rule="nonzero"/></clipPath></defs><g clip-path="url(#e9ed867d38)"><g clip-path="url(#f95b4a2cf0)"><g clip-path="url(#9c29ee23dd)"><g clip-path="url(#7cb4d597a2)"><g clip-path="url(#b36aba3720)"><path fill="#000000" d="M 121.175781 186.796875 C 106.121094 193.132812 88.464844 190.191406 72.378906 187.253906 C 54.53125 183.992188 29.527344 179.4375 12.605469 186.632812 C 7.945312 188.617188 3.476562 191.636719 1.589844 196.351562 C 0.804688 198.316406 0.753906 199.585938 1.417969 200.796875 C 2.121094 202.085938 4.207031 202.511719 4.609375 201.453125 C 4.742188 201.097656 4.632812 200.90625 4.003906 200.410156 C 3.050781 199.648438 2.855469 198.941406 3.152344 197.324219 C 3.621094 194.808594 5.75 191.957031 8.761719 189.816406 C 16.027344 184.65625 28.078125 182.523438 43.625 183.652344 C 65.203125 185.21875 82.824219 191.425781 101.847656 191.074219 C 109.296875 190.9375 114.855469 189.96875 119.636719 187.972656 C 121.640625 187.136719 123.84375 185.988281 123.765625 185.820312 C 123.71875 185.722656 121.195312 186.804688 121.175781 186.796875 " fill-opacity="1" fill-rule="nonzero"/></g></g></g></g></g><g fill="#000000" fill-opacity="1"><g transform="translate(80.929775, 203.624987)"><g><path d="M 61.84375 24.34375 C 59.695312 24.59375 58.078125 23.734375 56.984375 21.765625 C 55.890625 19.804688 55.203125 16.90625 54.921875 13.0625 C 54.648438 9.226562 54.738281 4.625 55.1875 -0.75 C 55.632812 -6.125 56.332031 -12.0625 57.28125 -18.5625 C 58.226562 -25.0625 59.375 -31.984375 60.71875 -39.328125 C 62.0625 -46.671875 63.484375 -54.203125 64.984375 -61.921875 C 65.078125 -62.367188 64.875 -62.710938 64.375 -62.953125 C 63.882812 -63.203125 63.273438 -63.265625 62.546875 -63.140625 C 61.828125 -63.023438 61.144531 -62.664062 60.5 -62.0625 C 59.851562 -61.46875 59.40625 -60.570312 59.15625 -59.375 C 57.3125 -50.363281 55.640625 -41.820312 54.140625 -33.75 C 52.648438 -25.6875 51.492188 -18.242188 50.671875 -11.421875 C 49.847656 -4.597656 49.546875 1.410156 49.765625 6.609375 C 49.992188 11.816406 50.878906 16.0625 52.421875 19.34375 C 53.972656 22.625 56.363281 24.765625 59.59375 25.765625 C 61.039062 26.210938 62.785156 25.765625 64.828125 24.421875 C 66.867188 23.078125 69.070312 21.132812 71.4375 18.59375 C 73.800781 16.050781 76.210938 13.175781 78.671875 9.96875 C 81.140625 6.757812 83.554688 3.445312 85.921875 0.03125 C 88.285156 -3.375 90.488281 -6.609375 92.53125 -9.671875 C 94.570312 -12.734375 96.316406 -15.335938 97.765625 -17.484375 C 97.765625 -17.679688 97.585938 -17.800781 97.234375 -17.84375 C 96.890625 -17.894531 96.644531 -17.820312 96.5 -17.625 C 95.894531 -16.925781 94.894531 -15.53125 93.5 -13.4375 C 92.113281 -11.351562 90.460938 -8.863281 88.546875 -5.96875 C 86.628906 -3.082031 84.535156 -0.046875 82.265625 3.140625 C 80.003906 6.328125 77.675781 9.390625 75.28125 12.328125 C 72.894531 15.265625 70.554688 17.800781 68.265625 19.9375 C 65.972656 22.082031 63.832031 23.550781 61.84375 24.34375 Z M 99.859375 -70.203125 C 97.117188 -68.359375 94.066406 -67.035156 90.703125 -66.234375 C 87.347656 -65.441406 83.789062 -64.992188 80.03125 -64.890625 C 76.269531 -64.796875 72.382812 -64.859375 68.375 -65.078125 C 64.363281 -65.304688 60.351562 -65.53125 56.34375 -65.75 C 52.34375 -65.976562 48.425781 -66.03125 44.59375 -65.90625 C 40.757812 -65.78125 37.125 -65.316406 33.6875 -64.515625 C 30.25 -63.722656 27.097656 -62.40625 24.234375 -60.5625 C 21.367188 -58.726562 18.90625 -56.203125 16.84375 -52.984375 C 14.78125 -49.773438 13.222656 -45.707031 12.171875 -40.78125 C 11.867188 -40.726562 11.65625 -40.625 11.53125 -40.46875 C 11.414062 -40.320312 11.234375 -40.273438 10.984375 -40.328125 C 11.972656 -45.554688 13.5 -49.863281 15.5625 -53.25 C 17.632812 -56.632812 20.113281 -59.3125 23 -61.28125 C 25.882812 -63.25 29.070312 -64.664062 32.5625 -65.53125 C 36.050781 -66.40625 39.75 -66.929688 43.65625 -67.109375 C 47.5625 -67.285156 51.554688 -67.257812 55.640625 -67.03125 C 59.722656 -66.8125 63.789062 -66.585938 67.84375 -66.359375 C 71.90625 -66.140625 75.851562 -66.066406 79.6875 -66.140625 C 83.519531 -66.210938 87.117188 -66.644531 90.484375 -67.4375 C 93.847656 -68.238281 96.847656 -69.5625 99.484375 -71.40625 C 100.273438 -71.945312 100.695312 -72.082031 100.75 -71.8125 C 100.800781 -71.539062 100.503906 -71.003906 99.859375 -70.203125 Z M 99.859375 -70.203125 "/></g></g></g><g fill="#000000" fill-opacity="1"><g transform="translate(177.346299, 203.624987)"><g><path d="M 10.984375 -29.046875 C 13.117188 -29.046875 14.5625 -28.132812 15.3125 -26.3125 C 16.0625 -24.5 16.085938 -22.25 15.390625 -19.5625 C 15.191406 -19.5625 15.03125 -19.550781 14.90625 -19.53125 C 14.78125 -19.507812 14.617188 -19.519531 14.421875 -19.5625 C 14.816406 -20.90625 14.960938 -22.25 14.859375 -23.59375 C 14.765625 -24.945312 14.390625 -26.054688 13.734375 -26.921875 C 13.085938 -27.796875 12.144531 -28.15625 10.90625 -28 C 9.707031 -27.851562 8.597656 -26.992188 7.578125 -25.421875 C 6.554688 -23.859375 5.660156 -21.867188 4.890625 -19.453125 C 4.117188 -17.035156 3.507812 -14.46875 3.0625 -11.75 C 2.613281 -9.039062 2.390625 -6.476562 2.390625 -4.0625 C 2.390625 -1.65625 2.640625 0.328125 3.140625 1.890625 C 3.640625 3.460938 4.4375 4.328125 5.53125 4.484375 C 6.96875 4.679688 8.367188 4.316406 9.734375 3.390625 C 11.109375 2.472656 12.351562 1.21875 13.46875 -0.375 C 14.59375 -1.96875 15.53125 -3.6875 16.28125 -5.53125 C 17.03125 -7.375 17.503906 -9.113281 17.703125 -10.75 C 16.648438 -11.101562 15.675781 -11.703125 14.78125 -12.546875 C 13.882812 -13.390625 13.273438 -14.304688 12.953125 -15.296875 C 12.628906 -16.296875 12.789062 -17.171875 13.4375 -17.921875 C 14.09375 -18.671875 14.90625 -18.84375 15.875 -18.4375 C 16.84375 -18.039062 17.675781 -17.234375 18.375 -16.015625 C 19.070312 -14.796875 19.296875 -13.265625 19.046875 -11.421875 C 20.640625 -10.878906 22.359375 -10.71875 24.203125 -10.9375 C 26.046875 -11.164062 27.882812 -11.8125 29.71875 -12.875 C 31.5625 -13.945312 33.179688 -15.484375 34.578125 -17.484375 C 34.722656 -17.679688 35.007812 -17.789062 35.4375 -17.8125 C 35.863281 -17.832031 36.078125 -17.742188 36.078125 -17.546875 C 34.328125 -15.109375 32.441406 -13.265625 30.421875 -12.015625 C 28.410156 -10.773438 26.410156 -10.015625 24.421875 -9.734375 C 22.429688 -9.460938 20.613281 -9.601562 18.96875 -10.15625 C 18.71875 -8.363281 18.179688 -6.507812 17.359375 -4.59375 C 16.535156 -2.675781 15.515625 -0.921875 14.296875 0.671875 C 13.078125 2.265625 11.707031 3.507812 10.1875 4.40625 C 8.675781 5.300781 7.097656 5.648438 5.453125 5.453125 C 3.609375 5.203125 2.125 4.40625 1 3.0625 C -0.113281 1.71875 -0.90625 0 -1.375 -2.09375 C -1.851562 -4.1875 -2.03125 -6.425781 -1.90625 -8.8125 C -1.78125 -11.195312 -1.394531 -13.582031 -0.75 -15.96875 C -0.101562 -18.363281 0.773438 -20.546875 1.890625 -22.515625 C 3.015625 -24.484375 4.335938 -26.0625 5.859375 -27.25 C 7.378906 -28.445312 9.085938 -29.046875 10.984375 -29.046875 Z M 14.1875 -17.03125 C 13.9375 -16.53125 14 -15.90625 14.375 -15.15625 C 14.75 -14.414062 15.269531 -13.742188 15.9375 -13.140625 C 16.613281 -12.546875 17.25 -12.148438 17.84375 -11.953125 C 18 -13.390625 17.8125 -14.582031 17.28125 -15.53125 C 16.757812 -16.476562 16.1875 -17.085938 15.5625 -17.359375 C 14.945312 -17.640625 14.488281 -17.53125 14.1875 -17.03125 Z M 14.1875 -17.03125 "/></g></g></g><g fill="#000000" fill-opacity="1"><g transform="translate(211.700751, 203.624987)"><g><path d="M 45.40625 -17.546875 C 43.3125 -14.109375 40.570312 -11.566406 37.1875 -9.921875 C 33.800781 -8.285156 29.570312 -7.394531 24.5 -7.25 C 23.351562 -4.601562 21.921875 -2.367188 20.203125 -0.546875 C 18.484375 1.265625 16.738281 2.441406 14.96875 2.984375 C 13.207031 3.535156 11.65625 3.238281 10.3125 2.09375 C 9.5625 1.445312 9.195312 0.539062 9.21875 -0.625 C 9.25 -1.800781 9.671875 -3 10.484375 -4.21875 C 11.304688 -5.4375 12.515625 -6.46875 14.109375 -7.3125 C 15.703125 -8.164062 17.671875 -8.59375 20.015625 -8.59375 C 20.960938 -10.476562 21.679688 -12.453125 22.171875 -14.515625 C 22.671875 -16.585938 22.972656 -18.53125 23.078125 -20.34375 C 23.179688 -22.164062 23.082031 -23.660156 22.78125 -24.828125 C 22.476562 -26.003906 21.976562 -26.613281 21.28125 -26.65625 C 20.632812 -26.757812 19.722656 -26.5625 18.546875 -26.0625 C 17.378906 -25.5625 16.007812 -24.628906 14.4375 -23.265625 C 12.875 -21.898438 11.160156 -19.894531 9.296875 -17.25 C 7.429688 -14.613281 5.453125 -11.15625 3.359375 -6.875 C 2.765625 0.789062 2.066406 7.921875 1.265625 14.515625 C 0.472656 21.117188 -0.519531 26.894531 -1.71875 31.84375 C -2.914062 36.800781 -4.347656 40.6875 -6.015625 43.5 C -7.679688 46.3125 -9.632812 47.796875 -11.875 47.953125 C -13.769531 48.046875 -15.078125 47.132812 -15.796875 45.21875 C -16.515625 43.300781 -16.710938 40.695312 -16.390625 37.40625 C -16.066406 34.125 -15.296875 30.414062 -14.078125 26.28125 C -12.859375 22.15625 -11.253906 17.898438 -9.265625 13.515625 C -7.273438 9.140625 -4.984375 4.929688 -2.390625 0.890625 C -2.140625 -0.253906 -1.875 -2.566406 -1.59375 -6.046875 C -1.320312 -9.535156 -0.863281 -13.992188 -0.21875 -19.421875 C -0.0703125 -20.460938 0.285156 -21.304688 0.859375 -21.953125 C 1.429688 -22.597656 2.050781 -23.054688 2.71875 -23.328125 C 3.394531 -23.609375 3.984375 -23.660156 4.484375 -23.484375 C 4.984375 -23.316406 5.207031 -22.90625 5.15625 -22.25 C 4.851562 -20.257812 4.550781 -18.117188 4.25 -15.828125 C 3.957031 -13.535156 3.6875 -11.445312 3.4375 -9.5625 C 5.476562 -13.59375 7.457031 -16.835938 9.375 -19.296875 C 11.289062 -21.765625 13.054688 -23.632812 14.671875 -24.90625 C 16.296875 -26.175781 17.71875 -27 18.9375 -27.375 C 20.15625 -27.75 21.113281 -27.835938 21.8125 -27.640625 C 23.25 -27.285156 24.351562 -26.421875 25.125 -25.046875 C 25.90625 -23.679688 26.378906 -22.039062 26.546875 -20.125 C 26.722656 -18.207031 26.660156 -16.210938 26.359375 -14.140625 C 26.066406 -12.078125 25.570312 -10.148438 24.875 -8.359375 C 28.507812 -8.554688 31.519531 -9.050781 33.90625 -9.84375 C 36.300781 -10.644531 38.304688 -11.707031 39.921875 -13.03125 C 41.535156 -14.351562 42.941406 -15.882812 44.140625 -17.625 C 44.242188 -17.820312 44.476562 -17.90625 44.84375 -17.875 C 45.21875 -17.851562 45.40625 -17.742188 45.40625 -17.546875 Z M -2.234375 2.390625 C -5.578125 8.066406 -8.28125 13.539062 -10.34375 18.8125 C -12.40625 24.09375 -13.832031 28.820312 -14.625 33 C -15.425781 37.1875 -15.613281 40.535156 -15.1875 43.046875 C -14.769531 45.566406 -13.789062 46.925781 -12.25 47.125 C -10.90625 47.03125 -9.734375 46.035156 -8.734375 44.140625 C -7.742188 42.242188 -6.898438 39.726562 -6.203125 36.59375 C -5.503906 33.457031 -4.90625 29.972656 -4.40625 26.140625 C -3.90625 22.304688 -3.492188 18.332031 -3.171875 14.21875 C -2.847656 10.113281 -2.535156 6.171875 -2.234375 2.390625 Z M 10.828125 1.421875 C 11.222656 1.765625 11.921875 1.6875 12.921875 1.1875 C 13.921875 0.695312 15.039062 -0.253906 16.28125 -1.671875 C 17.53125 -3.097656 18.675781 -5.054688 19.71875 -7.546875 C 17.570312 -7.492188 15.8125 -7.09375 14.4375 -6.34375 C 13.070312 -5.601562 12.050781 -4.707031 11.375 -3.65625 C 10.707031 -2.613281 10.335938 -1.617188 10.265625 -0.671875 C 10.191406 0.273438 10.378906 0.972656 10.828125 1.421875 Z M 10.828125 1.421875 "/></g></g></g><g fill="#000000" fill-opacity="1"><g transform="translate(255.764073, 203.624987)"><g><path d="M 9.265625 1.859375 C 10.503906 1.515625 11.820312 0.757812 13.21875 -0.40625 C 14.613281 -1.582031 16.019531 -2.96875 17.4375 -4.5625 C 18.851562 -6.15625 20.195312 -7.796875 21.46875 -9.484375 C 22.738281 -11.179688 23.894531 -12.765625 24.9375 -14.234375 C 25.988281 -15.703125 26.835938 -16.832031 27.484375 -17.625 C 27.628906 -17.769531 27.875 -17.84375 28.21875 -17.84375 C 28.570312 -17.84375 28.75 -17.742188 28.75 -17.546875 C 27.707031 -16.203125 26.4375 -14.492188 24.9375 -12.421875 C 23.445312 -10.359375 21.816406 -8.242188 20.046875 -6.078125 C 18.285156 -3.921875 16.492188 -2.003906 14.671875 -0.328125 C 12.859375 1.335938 11.101562 2.414062 9.40625 2.90625 C 7.414062 3.0625 5.710938 2.613281 4.296875 1.5625 C 2.878906 0.519531 1.757812 -0.929688 0.9375 -2.796875 C 0.113281 -4.660156 -0.40625 -6.75 -0.625 -9.0625 C -0.851562 -11.382812 -0.769531 -13.753906 -0.375 -16.171875 C 0.0195312 -18.585938 0.71875 -20.878906 1.71875 -23.046875 C 2.71875 -25.210938 4.035156 -27.039062 5.671875 -28.53125 C 7.210938 -29.976562 8.691406 -30.835938 10.109375 -31.109375 C 11.535156 -31.378906 12.742188 -31.253906 13.734375 -30.734375 C 14.734375 -30.210938 15.394531 -29.398438 15.71875 -28.296875 C 16.039062 -27.203125 15.90625 -25.992188 15.3125 -24.671875 C 14.71875 -23.359375 13.535156 -22.039062 11.765625 -20.71875 C 9.992188 -19.40625 7.488281 -18.273438 4.25 -17.328125 C 3.40625 -13.046875 3.117188 -9.394531 3.390625 -6.375 C 3.671875 -3.363281 4.34375 -1.140625 5.40625 0.296875 C 6.476562 1.742188 7.765625 2.265625 9.265625 1.859375 Z M 4.625 -18.59375 C 7.8125 -19.59375 10.1875 -20.710938 11.75 -21.953125 C 13.320312 -23.203125 14.296875 -24.421875 14.671875 -25.609375 C 15.046875 -26.804688 15.035156 -27.816406 14.640625 -28.640625 C 14.242188 -29.460938 13.671875 -29.945312 12.921875 -30.09375 C 11.878906 -30.195312 10.90625 -29.863281 10 -29.09375 C 9.101562 -28.320312 8.316406 -27.320312 7.640625 -26.09375 C 6.972656 -24.875 6.378906 -23.59375 5.859375 -22.25 C 5.335938 -20.90625 4.925781 -19.6875 4.625 -18.59375 Z M 4.625 -18.59375 "/></g></g></g><g clip-path="url(#aa213dd6bf)"><g clip-path="url(#2fa597c7b9)"><g clip-path="url(#1f1b623b54)"><g clip-path="url(#a5066d1969)"><g clip-path="url(#8b929d4ba5)"><path fill="#000000" d="M 285.707031 184.9375 C 296.886719 180.652344 309.785156 183.210938 321.527344 185.730469 C 334.558594 188.527344 352.8125 192.4375 365.378906 187.566406 C 368.839844 186.226562 372.179688 184.121094 373.660156 180.71875 C 374.277344 179.300781 374.339844 178.371094 373.878906 177.472656 C 373.386719 176.515625 371.867188 176.152344 371.546875 176.917969 C 371.445312 177.175781 371.519531 177.316406 371.972656 177.695312 C 372.65625 178.273438 372.785156 178.796875 372.53125 179.96875 C 372.140625 181.800781 370.515625 183.835938 368.265625 185.328125 C 362.824219 188.933594 353.941406 190.210938 342.554688 189.027344 C 326.753906 187.382812 313.949219 182.441406 299.980469 182.253906 C 294.511719 182.183594 290.414062 182.761719 286.863281 184.113281 C 285.375 184.675781 283.734375 185.464844 283.789062 185.589844 C 283.820312 185.660156 285.695312 184.929688 285.707031 184.9375 " fill-opacity="1" fill-rule="nonzero"/></g></g></g></g></g><g clip-path="url(#19beca8b62)"><path fill="#28b4a7" d="M 312.113281 145.304688 L 306.488281 145.304688 L 306.488281 118.804688 L 187.496094 50.054688 L 68.503906 118.804688 L 68.503906 145.304688 L 62.878906 145.304688 L 62.878906 115.542969 L 187.496094 43.585938 L 312.113281 115.542969 Z M 312.113281 259.457031 L 312.113281 229.695312 L 306.488281 229.695312 L 306.488281 256.191406 L 187.496094 324.886719 L 68.503906 256.191406 L 68.503906 229.695312 L 62.878906 229.695312 L 62.878906 259.457031 L 187.496094 331.414062 Z M 312.113281 259.457031 " fill-opacity="1" fill-rule="nonzero"/></g><g fill="#231f20" fill-opacity="1"><g transform="translate(157.367324, 271.941457)"><g><path d="M 1.359375 -9.09375 L 4.875 -9.09375 C 5.25 -9.09375 5.59375 -9.03125 5.90625 -8.90625 C 6.21875 -8.789062 6.484375 -8.625 6.703125 -8.40625 C 6.921875 -8.195312 7.09375 -7.945312 7.21875 -7.65625 C 7.34375 -7.375 7.40625 -7.078125 7.40625 -6.765625 C 7.40625 -6.398438 7.347656 -6.097656 7.234375 -5.859375 C 7.128906 -5.617188 7.015625 -5.425781 6.890625 -5.28125 C 6.734375 -5.101562 6.5625 -4.96875 6.375 -4.875 C 6.632812 -4.75 6.878906 -4.582031 7.109375 -4.375 C 7.296875 -4.1875 7.46875 -3.945312 7.625 -3.65625 C 7.78125 -3.375 7.859375 -3.019531 7.859375 -2.59375 C 7.859375 -2.226562 7.789062 -1.882812 7.65625 -1.5625 C 7.53125 -1.25 7.34375 -0.972656 7.09375 -0.734375 C 6.851562 -0.503906 6.5625 -0.320312 6.21875 -0.1875 C 5.875 -0.0625 5.488281 0 5.0625 0 L 1.359375 0 Z M 5.0625 -0.90625 C 5.625 -0.90625 6.066406 -1.0625 6.390625 -1.375 C 6.722656 -1.695312 6.890625 -2.101562 6.890625 -2.59375 C 6.890625 -2.84375 6.84375 -3.078125 6.75 -3.296875 C 6.664062 -3.515625 6.546875 -3.707031 6.390625 -3.875 C 6.234375 -4.039062 6.039062 -4.171875 5.8125 -4.265625 C 5.59375 -4.367188 5.34375 -4.421875 5.0625 -4.421875 L 2.34375 -4.421875 L 2.34375 -0.90625 Z M 4.875 -5.28125 C 5.363281 -5.28125 5.742188 -5.410156 6.015625 -5.671875 C 6.296875 -5.941406 6.4375 -6.304688 6.4375 -6.765625 C 6.4375 -7.179688 6.296875 -7.519531 6.015625 -7.78125 C 5.742188 -8.050781 5.363281 -8.1875 4.875 -8.1875 L 2.34375 -8.1875 L 2.34375 -5.28125 Z M 4.875 -5.28125 "/></g></g></g><g fill="#231f20" fill-opacity="1"><g transform="translate(174.329656, 271.941457)"><g><path d="M 4.03125 -9.09375 L 4.9375 -9.09375 L 8.703125 0 L 7.671875 0 L 6.625 -2.53125 L 2.34375 -2.53125 L 1.296875 0 L 0.265625 0 Z M 6.234375 -3.4375 L 4.484375 -7.734375 L 2.734375 -3.4375 Z M 6.234375 -3.4375 "/></g></g></g><g fill="#231f20" fill-opacity="1"><g transform="translate(191.616885, 271.941457)"><g><path d="M 5.453125 0.125 C 4.804688 0.125 4.195312 0.00390625 3.625 -0.234375 C 3.0625 -0.472656 2.566406 -0.804688 2.140625 -1.234375 C 1.722656 -1.660156 1.390625 -2.15625 1.140625 -2.71875 C 0.898438 -3.289062 0.78125 -3.898438 0.78125 -4.546875 C 0.78125 -5.203125 0.898438 -5.8125 1.140625 -6.375 C 1.390625 -6.945312 1.722656 -7.441406 2.140625 -7.859375 C 2.566406 -8.285156 3.0625 -8.617188 3.625 -8.859375 C 4.195312 -9.109375 4.804688 -9.234375 5.453125 -9.234375 C 6.078125 -9.234375 6.617188 -9.128906 7.078125 -8.921875 C 7.546875 -8.722656 7.929688 -8.507812 8.234375 -8.28125 C 8.597656 -8 8.910156 -7.6875 9.171875 -7.34375 L 8.515625 -6.765625 C 8.304688 -7.054688 8.054688 -7.316406 7.765625 -7.546875 C 7.515625 -7.742188 7.195312 -7.921875 6.8125 -8.078125 C 6.425781 -8.234375 5.972656 -8.3125 5.453125 -8.3125 C 4.941406 -8.3125 4.457031 -8.21875 4 -8.03125 C 3.550781 -7.84375 3.160156 -7.578125 2.828125 -7.234375 C 2.492188 -6.898438 2.226562 -6.503906 2.03125 -6.046875 C 1.84375 -5.585938 1.75 -5.085938 1.75 -4.546875 C 1.75 -4.015625 1.84375 -3.515625 2.03125 -3.046875 C 2.226562 -2.585938 2.492188 -2.191406 2.828125 -1.859375 C 3.160156 -1.523438 3.550781 -1.257812 4 -1.0625 C 4.457031 -0.875 4.941406 -0.78125 5.453125 -0.78125 C 5.953125 -0.78125 6.378906 -0.84375 6.734375 -0.96875 C 7.085938 -1.09375 7.382812 -1.234375 7.625 -1.390625 C 7.894531 -1.566406 8.125 -1.773438 8.3125 -2.015625 L 8.3125 -3.765625 L 6.234375 -3.765625 L 6.234375 -4.6875 L 9.296875 -4.6875 L 9.296875 -1.75 C 9.015625 -1.394531 8.6875 -1.082031 8.3125 -0.8125 C 7.976562 -0.570312 7.570312 -0.351562 7.09375 -0.15625 C 6.625 0.03125 6.078125 0.125 5.453125 0.125 Z M 5.453125 0.125 "/></g></g></g><g fill="#231f20" fill-opacity="1"><g transform="translate(210.268699, 271.941457)"><g><path d="M 3.640625 0.125 C 3.117188 0.125 2.664062 0.0546875 2.28125 -0.078125 C 1.894531 -0.210938 1.578125 -0.367188 1.328125 -0.546875 C 1.035156 -0.742188 0.785156 -0.972656 0.578125 -1.234375 L 1.171875 -1.890625 C 1.335938 -1.679688 1.535156 -1.5 1.765625 -1.34375 C 1.960938 -1.195312 2.21875 -1.066406 2.53125 -0.953125 C 2.84375 -0.835938 3.210938 -0.78125 3.640625 -0.78125 C 4.328125 -0.78125 4.84375 -0.9375 5.1875 -1.25 C 5.539062 -1.570312 5.71875 -1.976562 5.71875 -2.46875 C 5.71875 -2.757812 5.644531 -3 5.5 -3.1875 C 5.363281 -3.375 5.179688 -3.53125 4.953125 -3.65625 C 4.722656 -3.789062 4.457031 -3.90625 4.15625 -4 C 3.863281 -4.09375 3.5625 -4.1875 3.25 -4.28125 C 2.9375 -4.375 2.628906 -4.476562 2.328125 -4.59375 C 2.035156 -4.707031 1.773438 -4.859375 1.546875 -5.046875 C 1.316406 -5.234375 1.128906 -5.460938 0.984375 -5.734375 C 0.847656 -6.015625 0.78125 -6.359375 0.78125 -6.765625 C 0.78125 -7.085938 0.847656 -7.398438 0.984375 -7.703125 C 1.117188 -8.003906 1.3125 -8.265625 1.5625 -8.484375 C 1.820312 -8.710938 2.128906 -8.894531 2.484375 -9.03125 C 2.847656 -9.164062 3.253906 -9.234375 3.703125 -9.234375 C 4.148438 -9.234375 4.535156 -9.171875 4.859375 -9.046875 C 5.191406 -8.921875 5.46875 -8.785156 5.6875 -8.640625 C 5.945312 -8.472656 6.175781 -8.28125 6.375 -8.0625 L 5.71875 -7.40625 C 5.582031 -7.570312 5.414062 -7.722656 5.21875 -7.859375 C 5.039062 -7.972656 4.828125 -8.078125 4.578125 -8.171875 C 4.335938 -8.265625 4.046875 -8.3125 3.703125 -8.3125 C 3.390625 -8.3125 3.113281 -8.269531 2.875 -8.1875 C 2.632812 -8.101562 2.429688 -7.988281 2.265625 -7.84375 C 2.097656 -7.695312 1.96875 -7.53125 1.875 -7.34375 C 1.789062 -7.164062 1.75 -6.972656 1.75 -6.765625 C 1.75 -6.367188 1.867188 -6.0625 2.109375 -5.84375 C 2.359375 -5.632812 2.664062 -5.460938 3.03125 -5.328125 C 3.40625 -5.191406 3.800781 -5.066406 4.21875 -4.953125 C 4.644531 -4.835938 5.039062 -4.6875 5.40625 -4.5 C 5.78125 -4.3125 6.085938 -4.0625 6.328125 -3.75 C 6.566406 -3.4375 6.6875 -3.007812 6.6875 -2.46875 C 6.6875 -2.09375 6.617188 -1.75 6.484375 -1.4375 C 6.359375 -1.125 6.164062 -0.847656 5.90625 -0.609375 C 5.644531 -0.378906 5.320312 -0.195312 4.9375 -0.0625 C 4.5625 0.0625 4.128906 0.125 3.640625 0.125 Z M 3.640625 0.125 "/></g></g></g></svg>